<?xml version="1.0" encoding="UTF-8"?>
<svg width="25px" height="24px" viewBox="0 0 25 24" version="1.1" xmlns="http://www.w3.org/2000/svg" xmlns:xlink="http://www.w3.org/1999/xlink">
    <title>E84E577C-7891-4C3B-A852-654A679F7550</title>
    <defs>
        <polygon id="path-1" points="0.00140625 0.0009375 24.0014062 0.0009375 24.0014062 24.0009375 0.00140625 24.0009375"></polygon>
        <path d="M24,12 C24,5.37257812 18.6274219,-1.42108547e-15 12,-1.42108547e-15 C5.37257813,-1.42108547e-15 0,5.37257812 0,12 C0,17.9895469 4.38822656,22.9539844 10.125,23.8542188 L10.125,15.46875 L7.078125,15.46875 L7.078125,12 L10.125,12 L10.125,9.35625 C10.125,6.34875 11.9165156,4.6875 14.6575781,4.6875 C15.9704766,4.6875 17.34375,4.921875 17.34375,4.921875 L17.34375,7.875 L15.8305781,7.875 C14.3398828,7.875 13.875,8.80000781 13.875,9.74899219 L13.875,12 L17.203125,12 L16.6710938,15.46875 L13.875,15.46875 L13.875,23.8542188 C19.6117734,22.9539844 24,17.9895469 24,12" id="path-3"></path>
    </defs>
    <g id="Homepage" stroke="none" stroke-width="1" fill="none" fill-rule="evenodd">
        <g id="SM-Homepage-DE" transform="translate(-84.000000, -4741.000000)">
            <g id="Footer/Small" transform="translate(0.000000, 4539.000000)">
                <g id="Media/Facebook" transform="translate(84.000000, 202.000000)">
                    <g id="Group-3">
                        <g>
                            <mask id="mask-2" fill="white">
                                <use xlink:href="#path-1"></use>
                            </mask>
                            <g id="Clip"></g>
                            <mask id="mask-4" fill="white">
                                <use xlink:href="#path-3"></use>
                            </mask>
                            <use id="Mask" fill="#0A0B09" xlink:href="#path-3"></use>
                            <g id="Basics/Color/Black/700" mask="url(#mask-4)" fill="#4A4A4A">
                                <rect id="Rectangle" x="0" y="0" width="24" height="24"></rect>
                            </g>
                        </g>
                    </g>
                </g>
            </g>
        </g>
    </g>
</svg>