<?xml version="1.0" encoding="UTF-8"?>
<svg width="24px" height="24px" viewBox="0 0 24 24" version="1.1" xmlns="http://www.w3.org/2000/svg" xmlns:xlink="http://www.w3.org/1999/xlink">
    <title>20DA46FA-92BA-4737-A31E-32F7C28B0FFD</title>
    <defs>
        <path d="M22.2264439,-3.55271368e-15 C23.2059403,-3.55271368e-15 24,0.769972875 24,1.71921057 L24,22.2807894 C24,23.2303478 23.2059403,24 22.2264439,24 L1.77355608,24 C0.794027474,24 1.37532095e-15,23.2303478 1.25903359e-15,22.2807894 L-1.25903359e-15,1.71921057 C-1.37528168e-15,0.769972875 0.794027474,0 1.77355608,0 L22.2264439,-3.55271368e-15 Z M16.1233555,9.0282014 L15.8752058,9.03426315 C14.180754,9.11830067 13.3722122,10.0586863 12.9066085,10.761493 L12.9066085,10.761493 L12.86635,10.8229548 L12.8664981,9.28333713 L9.25254711,9.28333713 L9.25518423,9.35186227 C9.29572351,10.6007979 9.25761756,19.0692825 9.25299423,20.0612532 L9.25254711,20.1560444 L12.8664016,20.1560444 L12.8664016,14.0842644 L12.8696076,13.8900679 C12.8786738,13.6331536 12.9089735,13.3882233 12.9853147,13.2023892 C13.2465634,12.5531283 13.8411938,11.8807025 14.839537,11.8807025 C16.1472283,11.8807025 16.6703369,12.8777588 16.6703369,14.3394002 L16.6703369,14.3394002 L16.6703369,20.1560444 L20.2839018,20.1560444 L20.2839018,13.9217884 L20.2798002,13.6476161 C20.1843932,10.4970476 18.4349623,9.0282014 16.1233555,9.0282014 L16.1233555,9.0282014 Z M7.25286855,9.28333713 L3.63898193,9.28333713 L3.63898193,20.1560444 L7.25286855,20.1560444 L7.25286855,9.28333713 Z M5.46981405,4.04195482 C4.23361227,4.04195482 3.42535,4.85369183 3.42535,5.92056456 C3.42535,6.96395066 4.20957867,7.79885257 5.42235816,7.79885257 L5.42235816,7.79885257 L5.4458448,7.79885257 L5.614781,7.79373639 C6.77583203,7.72252165 7.49053407,6.91652402 7.49053407,5.92056456 C7.46704743,4.85369183 6.70614453,4.04195482 5.46981405,4.04195482 Z" id="path-1"></path>
        <polygon id="path-3" points="0.00140625 0.0009375 24.0014063 0.0009375 24.0014063 24.0009375 0.00140625 24.0009375"></polygon>
    </defs>
    <g id="Homepage" stroke="none" stroke-width="1" fill="none" fill-rule="evenodd">
        <g id="LG-Homepage-DE" transform="translate(-1158.000000, -5972.000000)">
            <g id="Footer/Large" transform="translate(0.000000, 5923.000000)">
                <g id="Media/Linkedin" transform="translate(1158.000000, 49.000000)">
                    <g id="Basics/Color/Black/700" transform="translate(-0.000000, -0.000000)">
                        <mask id="mask-2" fill="white">
                            <use xlink:href="#path-1"></use>
                        </mask>
                        <g id="Mask" fill-rule="nonzero"></g>
                        <g mask="url(#mask-2)" fill="#4A4A4A" id="Rectangle">
                            <g transform="translate(0.000000, 0.000000)">
                                <rect x="0" y="0" width="24" height="24"></rect>
                            </g>
                        </g>
                    </g>
                    <mask id="mask-4" fill="white">
                        <use xlink:href="#path-3"></use>
                    </mask>
                    <g id="Clip"></g>
                </g>
            </g>
        </g>
    </g>
</svg>